# xmcd
#
# Track frame offsets:
#	150
#	15736
#	34712
#	54069
#	72348
#	99909
#	116107
#	132827
#	159798
#	173831
#	194487
#	223188
#	239395
#
# Disc length: 3404 seconds
#
# Revision: 0
# Processed by: cddbd v1.5.2PL0 Copyright (c) Steve Scherf et al.
# Submitted via: dBpowerAMP V4.0
#
DISCID=ab0d4a0d
DTITLE=Delta Kings - 13 Years of Friday Nights
DYEAR=2007
DGENRE=Blues
TTITLE0=Convenience Store Blures
TTITLE1=Life Ain't Fair
TTITLE2=Monkey Vibe
TTITLE3=Time
TTITLE4=I'm Not That Strong
TTITLE5=Ain't Workin' for Me
TTITLE6=She's Damaged Goods
TTITLE7=Freedom Train
TTITLE8=Mountain Song
TTITLE9=Sad State of Affairs
TTITLE10=Don't Want No Love
TTITLE11=Tired of Being Alone
TTITLE12=Ain't Got No Women
EXTD=Delta Kings' fourth album
EXTT0=
EXTT1=
EXTT2=
EXTT3=
EXTT4=
EXTT5=
EXTT6=
EXTT7=
EXTT8=
EXTT9=
EXTT10=
EXTT11=
EXTT12=
PLAYORDER=
